<svg version="1.1" id="Layer_1" xmlns="http://www.w3.org/2000/svg" xmlns:xlink="http://www.w3.org/1999/xlink" x="0px" y="0px"
	 width="100%" viewBox="0 0 233 236" enable-background="new 0 0 233 236" xml:space="preserve">
<path fill="#FCF3EB" opacity="1.000000" stroke="none" 
	d="
M3.000000,1.000000 
	C14.020894,1.000000 25.041788,1.000000 36.519226,1.468551 
	C36.985966,12.209302 36.899601,22.483040 37.063313,32.752792 
	C37.114555,35.967186 36.090294,37.116810 32.809570,37.066677 
	C22.208517,36.904682 11.603494,37.002373 1.000000,37.000000 
	C1.000000,25.979105 1.000000,14.958210 1.322158,3.433562 
	C2.096210,2.286540 2.548105,1.643270 3.000000,1.000000 
z"/>
<path fill="#FDF3EB" opacity="1.000000" stroke="none" 
	d="
M40.000000,1.000000 
	C51.354229,1.000000 62.708454,1.000000 74.518616,1.468539 
	C74.969208,13.217765 74.963867,24.498453 74.498932,35.860855 
	C65.020630,35.961430 56.001911,35.980293 46.848999,35.792427 
	C46.121452,35.832684 45.528091,36.079670 44.544220,36.494942 
	C42.468697,36.908241 40.783688,37.153252 39.073158,36.905231 
	C39.031963,32.955769 38.910622,29.495935 39.021614,26.043571 
	C39.290051,17.693861 39.666870,9.347632 40.000000,1.000000 
z"/>
<path fill="#ECDDD2" opacity="1.000000" stroke="none" 
	d="
M1.000000,227.000000 
	C1.000000,226.250000 1.000000,225.500000 1.415661,224.424957 
	C10.365202,224.397644 18.897064,224.807877 27.433538,224.960938 
	C35.703121,225.109222 35.705204,224.993088 38.107357,217.911942 
	C38.327957,217.811081 38.792690,217.682083 38.856033,218.127563 
	C38.386604,223.401703 40.182972,225.362885 45.365696,225.102325 
	C53.800514,224.678253 62.274685,224.869293 70.727043,225.047623 
	C73.925026,225.115097 75.438957,224.128922 75.365280,220.798950 
	C76.109154,220.788925 76.534996,220.819366 76.980637,221.264160 
	C78.483376,222.780853 79.935783,224.785706 81.454254,224.837051 
	C90.385109,225.139008 99.333328,224.878342 108.271408,225.041733 
	C111.556557,225.101807 112.316788,223.592529 112.130051,220.634491 
	C112.887054,220.583511 113.466728,220.696594 114.038910,221.230194 
	C115.506866,222.762283 116.939896,224.761063 118.464996,224.833969 
	C125.609779,225.175568 132.779907,224.987427 139.940994,224.987717 
	C149.987839,224.988098 149.987427,224.987793 149.986755,215.062469 
	C149.986160,206.309937 149.986618,197.557404 149.986618,188.932739 
	C140.118103,188.932739 130.963348,188.932739 121.755302,188.620163 
	C121.744102,187.888412 121.786194,187.469223 122.312065,187.031830 
	C130.423843,187.007004 138.054367,186.884354 145.678650,187.049545 
	C148.841095,187.118073 150.112152,186.192047 150.044357,182.846634 
	C149.836136,172.570114 149.896774,162.288132 149.882736,151.539368 
	C149.942856,141.045425 149.973160,131.020401 150.275360,121.311028 
	C150.753281,124.266113 151.134323,126.905266 151.138474,129.545013 
	C151.182861,157.823334 151.148575,186.101822 151.207687,214.380096 
	C151.212097,216.483490 151.769241,218.585724 152.053101,221.119354 
	C153.474319,222.695129 154.877670,224.776794 156.355042,224.830704 
	C164.987411,225.145782 173.638351,224.900558 182.280289,225.029221 
	C185.652649,225.079422 187.095947,223.885803 187.043442,220.390366 
	C186.906158,211.249924 186.905518,202.104568 187.049164,192.964310 
	C187.097137,189.911606 186.005219,188.866577 182.991486,188.940598 
	C176.346252,189.103806 169.694550,189.003296 162.993103,188.671829 
	C162.983704,187.879944 163.026672,187.426620 163.532654,186.980225 
	C170.325317,186.989243 176.657928,186.877838 182.983353,187.042725 
	C186.006592,187.121536 187.097824,186.070465 187.048737,183.012955 
	C186.904327,174.020493 186.910172,165.022873 187.046616,156.030167 
	C187.092026,153.037201 186.126907,151.862030 183.039139,151.942841 
	C176.380753,152.117081 169.714966,152.008530 162.999283,151.677460 
	C162.984009,150.885620 163.021683,150.432007 163.523193,149.985535 
	C170.316986,149.994431 176.649780,149.884216 182.975601,150.046722 
	C185.985672,150.124039 187.097321,149.100006 187.049591,146.028397 
	C186.904663,136.702301 186.869141,127.369881 187.063187,118.045586 
	C187.136261,114.533875 185.583740,113.877113 182.550766,113.952126 
	C176.058090,114.112709 169.558990,114.014481 163.009094,113.683792 
	C162.988876,112.890953 163.022095,112.436577 163.519470,111.989410 
	C170.309784,111.998604 176.638657,111.891899 182.960892,112.050224 
	C185.945862,112.124969 187.102402,111.146530 187.051712,108.053047 
	C186.901749,98.899231 187.084518,89.739571 186.894577,80.587234 
	C186.868454,79.327560 185.468643,78.096397 184.754288,76.533768 
	C184.921371,75.802147 185.038971,75.388786 185.537079,74.866760 
	C185.913208,68.811272 185.908813,62.864437 185.977539,56.602276 
	C186.948288,55.389267 187.845917,54.491581 188.818054,54.068459 
	C189.315964,57.412006 189.739365,60.280991 190.154816,63.469913 
	C190.066483,64.208420 189.986084,64.626991 189.639221,65.344131 
	C189.246552,67.722382 189.159058,69.805305 188.984619,71.880928 
	C188.752777,74.639702 190.323273,75.190948 192.678436,75.297043 
	C192.698837,76.121651 192.642319,76.594826 192.196732,77.058662 
	C190.870331,78.053108 189.141312,79.039597 189.118958,80.063354 
	C188.910233,89.618553 189.057755,99.180840 188.953873,108.739464 
	C188.924042,111.482880 190.179825,112.231689 192.668640,112.285675 
	C192.694229,113.115173 192.640091,113.591614 192.196655,114.058136 
	C190.870224,115.051651 189.140182,116.038620 189.118942,117.061096 
	C188.913437,126.949127 189.056503,136.843765 188.954544,146.735001 
	C188.926270,149.477600 190.180466,150.228821 192.670990,150.285507 
	C192.698242,151.114029 192.644440,151.590088 192.200836,152.055664 
	C190.872665,153.047028 189.141663,154.031555 189.119324,155.053421 
	C188.910583,164.607727 189.057755,174.169128 188.954422,183.726868 
	C188.924820,186.464645 190.177353,187.222672 192.669830,187.284409 
	C192.700073,188.112228 192.647446,188.588135 192.204483,189.053009 
	C190.873550,190.225250 189.145752,191.389801 189.117096,192.594757 
	C188.891586,202.075180 189.084335,211.564804 188.936981,221.048309 
	C188.888733,224.152908 190.075027,225.074158 193.041565,225.035828 
	C202.692139,224.911072 212.345352,224.993210 221.996536,225.320419 
	C221.992340,226.078018 221.989151,226.510941 221.518890,226.957870 
	C211.008224,226.921814 200.964020,226.812424 190.922043,226.916870 
	C189.957932,226.926880 189.007660,228.267700 187.790848,228.992737 
	C187.357681,228.994461 187.184647,228.994186 186.911606,228.600006 
	C185.315063,227.798508 183.824570,227.067032 182.320908,227.038895 
	C175.516510,226.911636 168.708374,226.983047 161.901596,226.983047 
	C151.981384,226.983032 151.981384,226.983078 152.000000,237.000000 
	C151.555664,237.000000 151.111328,237.000000 150.333893,236.542297 
	C150.000885,234.926010 149.846191,233.742493 150.028107,232.613190 
	C150.789490,227.886276 148.645370,226.672745 144.200027,226.894623 
	C137.430893,227.232529 130.632446,226.983047 123.846443,226.983047 
	C113.993294,226.983047 113.993294,226.983063 114.000000,237.000000 
	C113.555664,237.000000 113.111328,237.000000 112.334854,236.542267 
	C112.003014,234.926147 111.848953,233.742935 112.030525,232.613678 
	C112.789726,227.891983 110.655792,226.658371 106.205490,226.895370 
	C99.769814,227.238113 93.302315,226.983047 86.848389,226.983047 
	C77.001038,226.983063 77.001038,226.983078 77.000000,237.000000 
	C76.555664,237.000000 76.111328,237.000000 75.335709,236.542267 
	C75.004944,234.926010 74.851189,233.742676 75.032883,232.613312 
	C75.792946,227.888840 73.653633,226.671600 69.205833,226.894333 
	C62.437256,227.233307 55.639164,226.983047 48.853607,226.983063 
	C39.003342,226.983078 39.003342,226.983093 39.000000,237.000000 
	C38.555664,237.000000 38.111328,237.000000 37.336235,236.542267 
	C37.006142,235.093201 36.862072,234.076370 37.031612,233.114822 
	C37.943966,227.940369 35.662495,226.680054 30.734816,226.870697 
	C20.836359,227.253662 10.913052,226.994293 1.000000,227.000000 
z"/>
<path fill="#FDF4EC" opacity="1.000000" stroke="none" 
	d="
M78.000000,1.000000 
	C89.020897,1.000000 100.041786,1.000000 111.517914,1.468522 
	C111.967705,13.217095 111.962257,24.497145 111.497490,35.859562 
	C99.707260,35.884701 88.376350,35.827473 77.036301,35.316071 
	C77.018112,32.069443 76.921700,29.274019 77.016342,26.485079 
	C77.304665,17.988710 77.666672,9.494842 78.000000,1.000000 
z"/>
<path fill="#FDF4EC" opacity="1.000000" stroke="none" 
	d="
M156.000000,1.000000 
	C165.687561,1.000000 175.375122,1.000000 185.582611,1.415489 
	C186.401489,9.951032 186.826340,18.069359 186.937653,26.191986 
	C186.982437,29.459854 186.339600,32.737148 185.540405,36.037086 
	C174.061737,35.968922 163.052399,35.873825 152.032806,35.324039 
	C152.013000,27.620438 151.956207,20.371164 152.011383,13.122745 
	C152.045166,8.682289 150.780365,3.757254 156.000000,1.000000 
z"/>
<path fill="#FDF4EC" opacity="1.000000" stroke="none" 
	d="
M234.000000,39.000000 
	C234.000000,88.020897 234.000000,137.041794 233.555038,186.527527 
	C227.836975,187.997284 226.868927,185.509583 226.888382,180.649704 
	C227.068024,135.753128 226.994003,90.855537 226.994812,45.958244 
	C226.994934,39.031509 226.997437,39.031509 234.000000,39.000000 
z"/>
<path fill="#FCF2EA" opacity="1.000000" stroke="none" 
	d="
M1.000000,186.000000 
	C1.000000,174.979111 1.000000,163.958206 1.468153,152.478439 
	C8.170979,152.027603 14.405651,152.035660 20.739725,152.500610 
	C20.839127,162.433884 20.839127,171.910248 20.839127,181.386627 
	C21.289591,181.458176 21.740055,181.529724 22.190519,181.601273 
	C26.828360,175.764587 31.466198,169.927902 36.373741,164.383698 
	C36.751129,168.085663 36.858814,171.495148 36.767754,175.174179 
	C33.427547,179.317795 30.286083,183.191849 26.667507,187.040955 
	C17.793598,186.677353 9.396799,186.338684 1.000000,186.000000 
z"/>
<path fill="#FCF2EA" opacity="1.000000" stroke="none" 
	d="
M1.000000,75.000000 
	C1.000000,63.645771 1.000000,52.291546 1.415695,40.418587 
	C12.358684,39.765133 22.885937,39.625919 33.413555,39.525265 
	C33.643105,39.523071 33.876869,39.962250 33.912369,40.458633 
	C26.112928,46.064732 21.785686,53.346317 21.046511,62.617435 
	C20.719809,66.715088 20.767918,70.842621 20.199774,74.966858 
	C13.502449,74.984749 7.251225,74.992371 1.000000,75.000000 
z"/>
<path fill="#FDF1E7" opacity="1.000000" stroke="none" 
	d="
M37.886757,218.012802 
	C35.705204,224.993088 35.703121,225.109222 27.433538,224.960938 
	C18.897064,224.807877 10.365202,224.397644 1.415661,224.049957 
	C1.000000,212.645767 1.000000,201.291550 1.468605,189.475922 
	C5.090367,189.004578 8.249923,188.863022 11.395161,189.015945 
	C15.944024,189.237106 20.482515,189.671570 24.886530,190.321396 
	C18.871153,198.224213 12.864157,205.726501 7.247839,213.510666 
	C6.321575,214.794449 7.107737,217.313751 7.102508,219.262070 
	C9.140047,218.893555 11.262259,218.756592 13.178376,218.055984 
	C14.096777,217.720200 14.606534,216.302628 15.333446,215.400848 
	C17.982702,212.114304 20.645489,208.838638 22.747555,206.244553 
	C28.129147,210.427856 33.007954,214.220337 37.886757,218.012802 
z"/>
<path fill="#FCF3EB" opacity="1.000000" stroke="none" 
	d="
M1.000000,150.000000 
	C1.000000,138.312439 1.000000,126.624878 1.468096,114.481308 
	C8.168557,114.032646 14.400923,114.039993 20.733425,114.504089 
	C20.767075,126.625137 20.700588,138.289444 20.188717,149.962509 
	C13.495556,149.980850 7.247778,149.990417 1.000000,150.000000 
z"/>
<path fill="#FCF3EB" opacity="1.000000" stroke="none" 
	d="
M1.000000,112.000000 
	C1.000000,100.979103 1.000000,89.958214 1.415360,78.417976 
	C8.097170,77.614769 14.363620,77.330894 20.729568,77.503952 
	C20.764938,89.291702 20.700809,100.622528 20.191154,111.963303 
	C13.497086,111.982170 7.248543,111.991081 1.000000,112.000000 
z"/>
<path fill="#FCF2E9" opacity="1.000000" stroke="none" 
	d="
M189.000000,1.000000 
	C200.354233,1.000000 211.708450,1.000000 223.577759,1.405013 
	C224.389938,4.867644 224.687042,7.925263 224.745361,11.233333 
	C213.003784,16.998238 201.501007,22.512691 189.831314,27.641869 
	C189.442932,18.504393 189.221466,9.752196 189.000000,1.000000 
z"/>
<path fill="#EAE2DA" opacity="1.000000" stroke="none" 
	d="
M234.000000,38.666668 
	C226.997437,39.031509 226.994934,39.031509 226.994812,45.958244 
	C226.994003,90.855537 227.068024,135.753128 226.888382,180.649704 
	C226.868927,185.509583 227.836975,187.997284 233.555038,186.996185 
	C234.000000,187.444443 234.000000,187.888901 233.554718,188.665070 
	C227.848740,187.991791 226.624969,190.440659 226.891418,195.329865 
	C227.288513,202.616776 227.451538,209.979202 226.850128,217.237930 
	C226.366699,223.072708 228.908295,224.908325 234.000000,225.000000 
	C234.000000,225.444443 234.000000,225.888901 233.555634,226.663818 
	C228.171326,226.116135 226.134933,228.098480 226.963196,233.096420 
	C227.173370,234.364822 226.998138,235.697083 227.000000,237.000000 
	C226.555557,237.000000 226.111099,237.000000 225.328369,236.547760 
	C224.987244,234.150208 225.353668,232.103455 224.856400,230.294022 
	C224.503876,229.011230 222.984512,228.049103 221.985977,226.943848 
	C221.989151,226.510941 221.992340,226.078018 222.386963,225.260223 
	C223.511398,223.721954 224.860504,222.579163 224.880524,221.413544 
	C225.049255,211.590378 225.062057,201.761093 224.840637,191.939972 
	C224.818130,190.941269 223.020386,189.252106 221.920456,189.141998 
	C218.292160,188.778870 214.605988,188.993790 210.893005,188.655838 
	C210.887009,187.882324 210.930054,187.439728 211.439224,186.994553 
	C214.727722,186.990540 217.557236,186.861938 220.370667,187.020035 
	C223.839584,187.214951 225.122375,185.695404 225.026611,182.298843 
	C224.872253,176.824463 225.079330,171.340454 224.957245,165.864441 
	C224.858704,161.444183 226.132965,155.359406 223.800552,153.078781 
	C221.430923,150.761795 215.390396,152.199097 210.905945,151.661682 
	C210.892181,150.887787 210.929932,150.444519 211.436340,149.998779 
	C214.885452,149.994980 217.878784,149.819489 220.842972,150.038406 
	C224.195160,150.285980 225.139511,148.840057 225.038391,145.686142 
	C224.852783,139.896759 225.081238,134.095108 224.956329,128.302475 
	C224.857742,123.730965 226.112350,117.747047 223.741241,115.031471 
	C221.728668,112.726524 215.391220,114.197815 210.915283,113.667267 
	C210.896637,112.892189 210.930145,112.448044 211.432663,112.001663 
	C214.723618,111.998489 217.567642,111.774467 220.362213,112.050621 
	C224.242081,112.434013 225.151627,110.735771 225.056412,107.152664 
	C224.836029,98.858612 224.856049,90.551765 225.044403,82.256142 
	C225.130478,78.465088 223.942474,76.662834 219.931213,76.963402 
	C216.960114,77.186035 213.958603,77.002769 210.914658,76.670242 
	C210.887039,75.895874 210.915421,75.451576 211.414490,75.005486 
	C214.875137,75.002403 217.871384,74.879593 220.853195,75.034744 
	C223.714828,75.183640 225.096573,74.359306 225.043518,71.161957 
	C224.889206,61.862473 225.117264,52.555141 224.854263,43.260536 
	C224.813431,41.818356 222.981918,40.426849 222.057922,38.639957 
	C223.090973,36.106133 224.539108,34.018303 224.876617,31.764179 
	C225.328064,28.749054 224.918533,25.605017 224.813583,22.134157 
	C225.189667,19.491650 225.630890,17.231319 226.343231,15.288282 
	C226.740906,20.416328 226.933655,25.226471 226.978256,30.037987 
	C227.042709,36.989162 226.996902,36.989586 234.000000,37.000000 
	C234.000000,37.444447 234.000000,37.888889 234.000000,38.666668 
z"/>
<path fill="#FDF4EC" opacity="1.000000" stroke="none" 
	d="
M221.518890,226.957870 
	C222.984512,228.049103 224.503876,229.011230 224.856400,230.294022 
	C225.353668,232.103455 224.987244,234.150208 224.995041,236.547760 
	C213.312439,237.000000 201.624878,237.000000 189.467789,236.571182 
	C188.682495,233.758484 188.366730,231.374619 188.050964,228.990738 
	C189.007660,228.267700 189.957932,226.926880 190.922043,226.916870 
	C200.964020,226.812424 211.008224,226.921814 221.518890,226.957870 
z"/>
<path fill="#FDF4EC" opacity="1.000000" stroke="none" 
	d="
M114.468658,237.000000 
	C113.993294,226.983063 113.993294,226.983047 123.846443,226.983047 
	C130.632446,226.983047 137.430893,227.232529 144.200027,226.894623 
	C148.645370,226.672745 150.789490,227.886276 150.028107,232.613190 
	C149.846191,233.742493 150.000885,234.926010 150.000397,236.542297 
	C138.312439,237.000000 126.624878,237.000000 114.468658,237.000000 
z"/>
<path fill="#FDF4EC" opacity="1.000000" stroke="none" 
	d="
M39.468658,237.000000 
	C39.003342,226.983093 39.003342,226.983078 48.853607,226.983063 
	C55.639164,226.983047 62.437256,227.233307 69.205833,226.894333 
	C73.653633,226.671600 75.792946,227.888840 75.032883,232.613312 
	C74.851189,233.742676 75.004944,234.926010 75.002213,236.542267 
	C63.312439,237.000000 51.624878,237.000000 39.468658,237.000000 
z"/>
<path fill="#FDF4EC" opacity="1.000000" stroke="none" 
	d="
M1.000000,227.449982 
	C10.913052,226.994293 20.836359,227.253662 30.734816,226.870697 
	C35.662495,226.680054 37.943966,227.940369 37.031612,233.114822 
	C36.862072,234.076370 37.006142,235.093201 37.002739,236.542267 
	C25.645771,237.000000 14.291543,237.000000 2.360743,236.779572 
	C1.595510,236.270798 1.334120,236.084412 1.000000,236.000000 
	C1.000000,233.299988 1.000000,230.599976 1.000000,227.449982 
z"/>
<path fill="#FDF4EC" opacity="1.000000" stroke="none" 
	d="
M77.468658,237.000000 
	C77.001038,226.983078 77.001038,226.983063 86.848389,226.983047 
	C93.302315,226.983047 99.769814,227.238113 106.205490,226.895370 
	C110.655792,226.658371 112.789726,227.891983 112.030525,232.613678 
	C111.848953,233.742935 112.003014,234.926147 112.001358,236.542267 
	C100.645775,237.000000 89.291542,237.000000 77.468658,237.000000 
z"/>
<path fill="#FDF4EC" opacity="1.000000" stroke="none" 
	d="
M152.468658,237.000000 
	C151.981384,226.983078 151.981384,226.983032 161.901596,226.983047 
	C168.708374,226.983047 175.516510,226.911636 182.320908,227.038895 
	C183.824570,227.067032 185.315063,227.798508 186.904724,229.044830 
	C186.998550,232.255707 186.999268,234.627853 187.000000,237.000000 
	C175.645767,237.000000 164.291550,237.000000 152.468658,237.000000 
z"/>
<path fill="#FDF4EC" opacity="1.000000" stroke="none" 
	d="
M234.000000,224.531342 
	C228.908295,224.908325 226.366699,223.072708 226.850128,217.237930 
	C227.451538,209.979202 227.288513,202.616776 226.891418,195.329865 
	C226.624969,190.440659 227.848740,187.991791 233.554718,188.998383 
	C234.000000,200.687561 234.000000,212.375122 234.000000,224.531342 
z"/>
<path fill="#FCF3EB" opacity="1.000000" stroke="none" 
	d="
M234.000000,36.531342 
	C226.996902,36.989586 227.042709,36.989162 226.978256,30.037987 
	C226.933655,25.226471 226.740906,20.416328 226.323746,14.891824 
	C226.048355,13.118420 226.063568,12.058765 226.349411,10.708754 
	C226.457520,6.524399 227.633072,3.252655 231.000000,1.000000 
	C231.444443,1.000000 231.888901,1.000000 232.771545,1.221597 
	C233.410416,1.717818 233.673843,1.903420 234.000000,2.000000 
	C234.000000,13.354228 234.000000,24.708456 234.000000,36.531342 
z"/>
<path fill="#ECDDD2" opacity="1.000000" stroke="none" 
	d="
M155.531342,1.000000 
	C150.780365,3.757254 152.045166,8.682289 152.011383,13.122745 
	C151.956207,20.371164 152.013000,27.620438 151.686890,35.402481 
	C150.884384,35.882565 150.417557,35.829521 149.961884,35.325996 
	C149.981766,25.571104 149.902191,16.265297 150.049622,6.963088 
	C150.097748,3.926966 149.031097,2.881381 146.006378,2.927179 
	C136.870148,3.065513 127.725464,3.152368 118.594460,2.893254 
	C114.676865,2.782084 113.848587,4.317258 113.930977,7.860454 
	C114.147232,17.160130 114.033569,26.467480 113.705078,35.847664 
	C112.891472,35.874771 112.424141,35.825985 111.956810,35.777199 
	C111.962257,24.497145 111.967705,13.217095 111.986572,1.468522 
	C126.354225,1.000000 140.708450,1.000000 155.531342,1.000000 
z"/>
<path fill="#ECDDD2" opacity="1.000000" stroke="none" 
	d="
M34.108669,40.195534 
	C33.876869,39.962250 33.643105,39.523071 33.413555,39.525265 
	C22.885937,39.625919 12.358684,39.765133 1.415695,39.949928 
	C1.000000,39.250000 1.000000,38.500000 1.000000,37.375000 
	C11.603494,37.002373 22.208517,36.904682 32.809570,37.066677 
	C36.090294,37.116810 37.114555,35.967186 37.063313,32.752792 
	C36.899601,22.483040 36.985966,12.209302 36.987885,1.468551 
	C37.750000,1.000000 38.500000,1.000000 39.625000,1.000000 
	C39.666870,9.347632 39.290051,17.693861 39.021614,26.043571 
	C38.910622,29.495935 39.031963,32.955769 38.868134,37.140724 
	C37.161972,38.644676 35.635323,39.420105 34.108669,40.195534 
z"/>
<path fill="#ECDDD2" opacity="1.000000" stroke="none" 
	d="
M188.625000,1.000000 
	C189.221466,9.752196 189.442932,18.504393 189.858749,27.938351 
	C190.116730,29.012310 190.180374,29.404507 189.932022,30.070158 
	C189.419037,32.508121 189.218079,34.672626 188.688843,36.868797 
	C187.576965,36.603691 186.793335,36.306923 186.009720,36.010155 
	C186.339600,32.737148 186.982437,29.459854 186.937653,26.191986 
	C186.826340,18.069359 186.401489,9.951032 186.051270,1.415489 
	C186.750000,1.000000 187.500000,1.000000 188.625000,1.000000 
z"/>
<path fill="#ECDDD2" opacity="1.000000" stroke="none" 
	d="
M77.625000,1.000000 
	C77.666672,9.494842 77.304665,17.988710 77.016342,26.485079 
	C76.921700,29.274019 77.018112,32.069443 76.691833,35.398773 
	C75.890518,35.883472 75.424515,35.831306 74.958519,35.779140 
	C74.963867,24.498453 74.969208,13.217765 74.987274,1.468539 
	C75.750000,1.000000 76.500000,1.000000 77.625000,1.000000 
z"/>
<path fill="#FDF4EC" opacity="1.000000" stroke="none" 
	d="
M227.497910,237.000000 
	C226.998138,235.697083 227.173370,234.364822 226.963196,233.096420 
	C226.134933,228.098480 228.171326,226.116135 233.555634,226.997147 
	C234.000000,230.233170 234.000000,233.466339 234.000000,237.000000 
	C232.003265,237.000000 229.999542,237.000000 227.497910,237.000000 
z"/>
<path fill="#ECDDD2" opacity="1.000000" stroke="none" 
	d="
M25.025433,190.015030 
	C20.482515,189.671570 15.944024,189.237106 11.395161,189.015945 
	C8.249923,188.863022 5.090367,189.004578 1.468605,189.007263 
	C1.000000,188.250000 1.000000,187.500000 1.000000,186.375000 
	C9.396799,186.338684 17.793598,186.677353 26.548649,187.327682 
	C26.279745,188.431244 25.652590,189.223129 25.025433,190.015030 
z"/>
<path fill="#ECDDD2" opacity="1.000000" stroke="none" 
	d="
M20.630070,77.047020 
	C14.363620,77.330894 8.097170,77.614769 1.415360,77.949318 
	C1.000000,77.250000 1.000000,76.500000 1.000000,75.375000 
	C7.251225,74.992371 13.502449,74.984749 20.296677,75.311539 
	C20.769808,76.112984 20.699938,76.580002 20.630070,77.047020 
z"/>
<path fill="#ECDDD2" opacity="1.000000" stroke="none" 
	d="
M1.000000,112.333328 
	C7.248543,111.991081 13.497086,111.982170 20.290342,112.307922 
	C20.767801,113.110847 20.700544,113.579094 20.633289,114.047340 
	C14.400923,114.039993 8.168557,114.032646 1.468096,114.012650 
	C1.000000,113.555557 1.000000,113.111107 1.000000,112.333328 
z"/>
<path fill="#ECDDD2" opacity="1.000000" stroke="none" 
	d="
M1.000000,150.333313 
	C7.247778,149.990417 13.495556,149.980850 20.289474,150.305954 
	C20.770515,151.108322 20.705420,151.576019 20.640324,152.043701 
	C14.405651,152.035660 8.170979,152.027603 1.468153,152.009781 
	C1.000000,151.555557 1.000000,151.111099 1.000000,150.333313 
z"/>
<path fill="#ECDDD2" opacity="1.000000" stroke="none" 
	d="
M230.562500,1.000000 
	C227.633072,3.252655 226.457520,6.524399 226.075027,10.732752 
	C225.348053,11.025700 225.166092,11.004292 224.984146,10.982882 
	C224.687042,7.925263 224.389938,4.867644 224.046417,1.405013 
	C226.041672,1.000000 228.083328,1.000000 230.562500,1.000000 
z"/>
<path fill="#EAE2DA" opacity="1.000000" stroke="none" 
	d="
M187.333328,237.000000 
	C186.999268,234.627853 186.998550,232.255707 187.004715,229.438736 
	C187.184647,228.994186 187.357681,228.994461 187.790848,228.992737 
	C188.366730,231.374619 188.682495,233.758484 188.999130,236.571182 
	C188.555557,237.000000 188.111099,237.000000 187.333328,237.000000 
z"/>
<path fill="#ECDDD2" opacity="1.000000" stroke="none" 
	d="
M2.500000,1.000000 
	C2.548105,1.643270 2.096210,2.286540 1.322158,2.964905 
	C1.333333,2.333333 1.666667,1.666667 2.500000,1.000000 
z"/>
<path fill="#ECDDD2" opacity="1.000000" stroke="none" 
	d="
M234.000000,1.500000 
	C233.673843,1.903420 233.410416,1.717818 233.104858,1.221597 
	C233.333328,1.000000 233.666672,1.000000 234.000000,1.500000 
z"/>
<path fill="#ECDDD2" opacity="1.000000" stroke="none" 
	d="
M1.000000,236.500000 
	C1.334120,236.084412 1.595510,236.270798 1.892086,236.779572 
	C1.666667,237.000000 1.333333,237.000000 1.000000,236.500000 
z"/>
<path fill="#FF924F" opacity="1.000000" stroke="none" 
	d="
M20.739723,152.500610 
	C20.705420,151.576019 20.770515,151.108322 20.734858,150.297195 
	C20.700588,138.289444 20.767075,126.625137 20.733425,114.504089 
	C20.700544,113.579094 20.767801,113.110847 20.735868,112.297974 
	C20.700809,100.622528 20.764938,89.291702 20.729568,77.503952 
	C20.699938,76.580002 20.769808,76.112984 20.742775,75.301277 
	C20.767918,70.842621 20.719809,66.715088 21.046511,62.617435 
	C21.785686,53.346317 26.112928,46.064732 33.912369,40.458633 
	C35.635323,39.420105 37.161972,38.644676 38.893650,37.633751 
	C40.783688,37.153252 42.468697,36.908241 44.802814,36.637218 
	C45.962345,36.407188 46.472767,36.203175 46.983189,35.999161 
	C56.001911,35.980293 65.020630,35.961430 74.498932,35.860855 
	C75.424515,35.831306 75.890518,35.883472 76.700974,35.852943 
	C88.376350,35.827473 99.707260,35.884701 111.497490,35.859566 
	C112.424141,35.825985 112.891472,35.874771 114.163483,35.930660 
	C126.629005,35.883999 138.289856,35.830235 149.950714,35.776474 
	C150.417557,35.829521 150.884384,35.882565 151.697144,35.857170 
	C163.052399,35.873825 174.061737,35.968922 185.540405,36.037086 
	C186.793335,36.306923 187.576965,36.603691 189.004456,37.049103 
	C192.215729,38.437351 194.783112,39.676952 197.157181,41.264397 
	C194.223755,45.606125 191.483643,49.600010 188.743530,53.593895 
	C187.845917,54.491581 186.948288,55.389267 185.682465,56.800030 
	C183.859604,57.665310 182.420731,58.191074 180.946243,58.325153 
	C179.159882,58.487591 177.302795,58.060738 175.546799,58.336964 
	C166.571381,59.748825 162.470810,66.276352 162.975037,78.441879 
	C163.788544,84.453339 161.497330,88.773865 157.820816,92.756638 
	C155.580246,95.183846 153.835144,98.068398 151.586853,100.940445 
	C149.305588,103.572212 147.160629,105.909088 145.345459,108.478920 
	C143.573242,110.987961 141.931717,112.008316 138.422485,111.508507 
	C135.358231,111.072083 131.960190,112.979050 128.382843,113.895004 
	C127.187675,113.886497 126.319283,113.833672 125.279030,113.482460 
	C120.808769,109.965973 116.510353,106.747864 112.003181,103.226181 
	C111.187561,100.120712 110.207191,97.341034 110.038986,94.513046 
	C109.339722,82.755775 97.454491,75.939178 87.420166,81.803627 
	C82.475296,84.693596 80.228935,89.173622 79.901184,94.971161 
	C79.600868,100.283401 78.570305,105.554352 77.590286,111.020187 
	C76.168701,112.758102 75.018326,114.319321 73.592255,116.068382 
	C69.826164,120.712921 66.257729,125.111443 62.875458,129.648727 
	C60.931770,132.256180 58.897953,133.372681 55.347733,133.032104 
	C46.685905,132.201141 41.149918,136.577240 38.826191,145.355652 
	C38.470615,147.836182 38.516106,150.011749 38.202885,152.134399 
	C37.612396,156.136108 36.815273,160.107330 36.104038,164.091217 
	C31.466198,169.927902 26.828360,175.764587 22.190519,181.601273 
	C21.740055,181.529724 21.289591,181.458176 20.839127,181.386627 
	C20.839127,171.910248 20.839127,162.433884 20.739723,152.500610 
z"/>
<path fill="#ECDDD2" opacity="1.000000" stroke="none" 
	d="
M46.848999,35.792431 
	C46.472767,36.203175 45.962345,36.407188 45.193325,36.468929 
	C45.528091,36.079670 46.121452,35.832684 46.848999,35.792431 
z"/>
<path fill="#FF9452" opacity="1.000000" stroke="none" 
	d="
M210.963669,112.003906 
	C210.930145,112.448044 210.896637,112.892189 210.843903,114.131599 
	C210.872345,126.618332 210.919998,138.309799 210.967667,150.001251 
	C210.929932,150.444519 210.892181,150.887787 210.838104,152.127060 
	C210.872208,164.281082 210.922653,175.639114 210.973114,186.997131 
	C210.930054,187.439728 210.887009,187.882324 210.827835,189.081665 
	C210.314117,203.654755 203.435135,214.564911 192.594803,217.536453 
	C192.594803,207.887344 192.594803,198.475693 192.594803,189.064041 
	C192.647446,188.588135 192.700073,188.112228 192.764969,186.829102 
	C192.715027,174.703293 192.652832,163.384720 192.590637,152.066132 
	C192.644440,151.590088 192.698242,151.114029 192.766281,149.830170 
	C192.715652,137.370926 192.650803,125.719490 192.585938,114.068054 
	C192.640091,113.591614 192.694229,113.115173 192.765182,111.830627 
	C192.716599,99.704338 192.651215,88.386169 192.585815,77.067993 
	C192.642319,76.594826 192.698837,76.121651 192.769989,74.908783 
	C191.824997,71.127914 190.865341,68.086739 189.905701,65.045555 
	C189.986084,64.626991 190.066483,64.208420 190.421585,63.269234 
	C194.959259,57.428864 199.222229,52.109108 204.482727,45.544533 
	C206.688599,51.068756 208.940338,55.009357 209.773682,59.230015 
	C210.787735,64.365898 210.607437,69.737595 210.943787,75.007286 
	C210.915421,75.451576 210.887039,75.895874 210.843552,77.134399 
	C210.873505,89.287056 210.918594,100.645485 210.963669,112.003906 
z"/>
<path fill="#FE9656" opacity="1.000000" stroke="none" 
	d="
M163.059341,149.978378 
	C163.021683,150.432007 162.984009,150.885620 162.943237,152.142090 
	C162.983292,164.287720 163.026459,175.630508 163.069641,186.973282 
	C163.026672,187.426620 162.983704,187.879944 162.939285,189.137207 
	C162.937836,200.098984 162.937836,210.256836 162.937836,220.688507 
	C158.658264,220.688507 155.363846,220.688507 152.069427,220.688507 
	C151.769241,218.585724 151.212097,216.483490 151.207687,214.380096 
	C151.148575,186.101822 151.182861,157.823334 151.138474,129.545013 
	C151.134323,126.905266 150.753281,124.266113 150.224060,120.945648 
	C149.971970,118.194481 150.043076,116.124352 150.384369,113.899017 
	C151.684052,112.473564 152.713531,111.203308 153.982727,109.687881 
	C156.791946,106.302063 159.361481,103.161423 161.931015,100.020782 
	C162.305771,100.241432 162.680542,100.462090 163.055298,100.682739 
	C163.055298,104.449226 163.055298,108.215714 163.055298,111.982201 
	C163.022095,112.436577 162.988876,112.890953 162.948944,114.147331 
	C162.981247,126.625679 163.020294,138.302032 163.059341,149.978378 
z"/>
<path fill="#FF9350" opacity="1.000000" stroke="none" 
	d="
M114.046402,220.809677 
	C113.466728,220.696594 112.887054,220.583511 111.759521,220.517456 
	C110.800591,218.754135 110.116295,216.957504 110.024788,215.131165 
	C109.580292,206.260040 109.294640,197.380966 109.037659,188.374619 
	C109.263443,187.926376 109.404305,187.608200 109.694809,186.888763 
	C109.820808,162.340561 109.797157,138.193649 109.845078,113.700745 
	C109.908485,112.884392 109.900337,112.414024 109.940773,111.935135 
	C109.989365,111.926605 109.972725,111.829361 110.325516,111.863831 
	C112.435982,112.948616 114.193649,113.998932 116.137360,115.334290 
	C118.451767,118.019806 122.285919,118.683281 121.999992,123.436813 
	C121.467903,132.282867 121.825829,141.182434 121.792992,150.303345 
	C121.772713,150.546951 121.892960,151.020859 121.820526,151.450775 
	C121.774826,163.603806 121.801552,175.326920 121.828293,187.050049 
	C121.786194,187.469223 121.744102,187.888412 121.696777,189.052551 
	C121.542511,197.615356 121.340752,205.432648 121.259842,213.251190 
	C121.184753,220.507278 121.241570,220.507874 114.046402,220.809677 
z"/>
<path fill="#FDF3EB" opacity="1.000000" stroke="none" 
	d="
M75.047234,220.839401 
	C75.438957,224.128922 73.925026,225.115097 70.727043,225.047623 
	C62.274685,224.869293 53.800514,224.678253 45.365696,225.102325 
	C40.182972,225.362885 38.386604,223.401703 38.877693,217.688477 
	C38.905132,207.546829 38.974258,198.289749 39.508247,189.020325 
	C49.468410,189.053299 58.963718,189.098618 68.561691,189.590576 
	C68.698418,197.993500 69.005669,205.961487 68.666031,213.901794 
	C68.455917,218.814011 69.559967,221.602570 75.047234,220.839401 
z"/>
<path fill="#FDF3EB" opacity="1.000000" stroke="none" 
	d="
M108.952736,188.504700 
	C109.294640,197.380966 109.580292,206.260040 110.024788,215.131165 
	C110.116295,216.957504 110.800591,218.754135 111.582191,220.681519 
	C112.316788,223.592529 111.556557,225.101807 108.271408,225.041733 
	C99.333328,224.878342 90.385109,225.139008 81.454254,224.837051 
	C79.935783,224.785706 78.483376,222.780853 77.378189,221.196655 
	C78.502563,219.194351 79.853607,217.690674 79.896355,216.150696 
	C80.147415,207.105057 80.093216,198.050964 80.465988,188.874084 
	C90.177628,188.667206 99.565178,188.585953 108.952736,188.504700 
z"/>
<path fill="#FDF4EC" opacity="1.000000" stroke="none" 
	d="
M114.038910,221.230194 
	C121.241570,220.507874 121.184753,220.507278 121.259842,213.251190 
	C121.340752,205.432648 121.542511,197.615356 121.750076,189.365128 
	C130.963348,188.932739 140.118103,188.932739 149.986618,188.932739 
	C149.986618,197.557404 149.986160,206.309937 149.986755,215.062469 
	C149.987427,224.987793 149.987839,224.988098 139.940994,224.987717 
	C132.779907,224.987427 125.609779,225.175568 118.464996,224.833969 
	C116.939896,224.761063 115.506866,222.762283 114.038910,221.230194 
z"/>
<path fill="#FF9351" opacity="1.000000" stroke="none" 
	d="
M80.141907,188.999710 
	C80.093216,198.050964 80.147415,207.105057 79.896355,216.150696 
	C79.853607,217.690674 78.502563,219.194351 77.358383,220.782318 
	C76.534996,220.819366 76.109154,220.788925 75.365280,220.798950 
	C69.559967,221.602570 68.455917,218.814011 68.666031,213.901794 
	C69.005669,205.961487 68.698418,197.993500 68.679581,189.218292 
	C68.610054,187.893524 68.525291,187.387680 68.555534,186.434296 
	C68.596176,174.706039 68.521812,163.425278 68.576065,151.775208 
	C68.628418,150.896790 68.552170,150.387695 68.576706,149.491547 
	C68.329468,146.863419 68.542267,144.310715 67.508682,142.450607 
	C65.732285,139.253677 66.529533,137.110062 68.665352,134.586395 
	C71.074684,131.739548 73.049339,128.524841 75.491547,125.301094 
	C76.533379,124.105324 77.296700,123.078575 78.375916,121.914658 
	C79.127457,123.062637 79.913002,124.340034 79.941711,125.634209 
	C80.121819,133.752762 80.133308,141.875061 80.159233,150.251434 
	C80.162460,150.673309 80.207047,150.839874 80.160774,151.466721 
	C80.100433,163.604187 80.130936,175.281357 80.104973,187.296997 
	C80.079643,188.090210 80.110771,188.544968 80.141907,188.999710 
z"/>
<path fill="#FDF4EC" opacity="1.000000" stroke="none" 
	d="
M122.312057,187.031830 
	C121.801552,175.326920 121.774826,163.603806 122.067337,151.348724 
	C122.603546,150.542435 122.820511,150.268097 123.503448,149.996460 
	C132.597244,150.668884 141.225082,151.338593 149.852921,152.008286 
	C149.896774,162.288132 149.836136,172.570114 150.044357,182.846634 
	C150.112152,186.192047 148.841095,187.118073 145.678650,187.049545 
	C138.054367,186.884354 130.423843,187.007004 122.312057,187.031830 
z"/>
<path fill="#FDF3EA" opacity="1.000000" stroke="none" 
	d="
M163.519470,111.989410 
	C163.055298,108.215714 163.055298,104.449226 163.055298,100.682739 
	C162.680542,100.462090 162.305771,100.241432 161.931015,100.020782 
	C159.361481,103.161423 156.791946,106.302063 153.621353,109.585083 
	C152.636017,106.734154 152.251755,103.740837 151.867493,100.747520 
	C153.835144,98.068398 155.580246,95.183846 157.820816,92.756638 
	C161.497330,88.773865 163.788544,84.453339 163.415192,78.439926 
	C166.549927,78.014595 169.181976,78.029747 172.136520,78.201294 
	C177.478439,81.905083 179.412430,81.667297 184.704803,76.852036 
	C185.468643,78.096397 186.868454,79.327560 186.894577,80.587234 
	C187.084518,89.739571 186.901749,98.899231 187.051712,108.053047 
	C187.102402,111.146530 185.945862,112.124969 182.960892,112.050224 
	C176.638657,111.891899 170.309784,111.998604 163.519470,111.989410 
z"/>
<path fill="#FCF3EB" opacity="1.000000" stroke="none" 
	d="
M152.053101,221.119354 
	C155.363846,220.688507 158.658264,220.688507 162.937836,220.688507 
	C162.937836,210.256836 162.937836,200.098984 162.991669,189.475754 
	C169.694550,189.003296 176.346252,189.103806 182.991486,188.940598 
	C186.005219,188.866577 187.097137,189.911606 187.049164,192.964310 
	C186.905518,202.104568 186.906158,211.249924 187.043442,220.390366 
	C187.095947,223.885803 185.652649,225.079422 182.280289,225.029221 
	C173.638351,224.900558 164.987411,225.145782 156.355042,224.830704 
	C154.877670,224.776794 153.474319,222.695129 152.053101,221.119354 
z"/>
<path fill="#FCF2EA" opacity="1.000000" stroke="none" 
	d="
M192.204483,189.053009 
	C192.594803,198.475693 192.594803,207.887344 192.594803,217.536453 
	C203.435135,214.564911 210.314117,203.654755 210.876892,189.412582 
	C214.605988,188.993790 218.292160,188.778870 221.920456,189.141998 
	C223.020386,189.252106 224.818130,190.941269 224.840637,191.939972 
	C225.062057,201.761093 225.049255,211.590378 224.880524,221.413544 
	C224.860504,222.579163 223.511398,223.721954 222.387970,224.935532 
	C212.345352,224.993210 202.692139,224.911072 193.041565,225.035828 
	C190.075027,225.074158 188.888733,224.152908 188.936981,221.048309 
	C189.084335,211.564804 188.891586,202.075180 189.117096,192.594757 
	C189.145752,191.389801 190.873550,190.225250 192.204483,189.053009 
z"/>
<path fill="#FCF2EA" opacity="1.000000" stroke="none" 
	d="
M149.882736,151.539368 
	C141.225082,151.338593 132.597244,150.668884 123.196846,150.007278 
	C122.220612,150.030167 122.016937,150.044937 121.813263,150.059723 
	C121.825829,141.182434 121.467903,132.282867 121.999992,123.436813 
	C122.285919,118.683281 118.451767,118.019806 116.432465,115.040810 
	C119.511314,114.235153 122.481102,114.008003 125.450882,113.780853 
	C126.319283,113.833672 127.187675,113.886497 128.875107,113.943901 
	C136.500824,113.983727 143.307495,114.018967 150.114166,114.054214 
	C150.043076,116.124352 149.971970,118.194481 149.952179,120.629990 
	C149.973160,131.020401 149.942856,141.045425 149.882736,151.539368 
M140.726242,132.372971 
	C143.363037,130.134445 145.047455,127.235451 143.246994,124.071800 
	C142.073715,122.010185 139.568954,119.500801 137.570160,119.419586 
	C135.070526,119.318024 131.402328,120.873718 130.230881,122.878273 
	C129.080673,124.846474 129.615173,128.728683 130.864044,130.955719 
	C132.831039,134.463348 136.514252,134.579453 140.726242,132.372971 
z"/>
<path fill="#FDF4EC" opacity="1.000000" stroke="none" 
	d="
M163.523193,149.985535 
	C163.020294,138.302032 162.981247,126.625679 163.002365,114.485794 
	C169.558990,114.014481 176.058090,114.112709 182.550766,113.952126 
	C185.583740,113.877113 187.136261,114.533875 187.063187,118.045586 
	C186.869141,127.369881 186.904663,136.702301 187.049591,146.028397 
	C187.097321,149.100006 185.985672,150.124039 182.975601,150.046722 
	C176.649780,149.884216 170.316986,149.994431 163.523193,149.985535 
z"/>
<path fill="#FDF4EC" opacity="1.000000" stroke="none" 
	d="
M163.532639,186.980225 
	C163.026459,175.630508 162.983292,164.287720 162.996170,152.480316 
	C169.714966,152.008530 176.380753,152.117081 183.039139,151.942841 
	C186.126907,151.862030 187.092026,153.037201 187.046616,156.030167 
	C186.910172,165.022873 186.904327,174.020493 187.048737,183.012955 
	C187.097824,186.070465 186.006592,187.121536 182.983353,187.042725 
	C176.657928,186.877838 170.325317,186.989243 163.532639,186.980225 
z"/>
<path fill="#FF9757" opacity="1.000000" stroke="none" 
	d="
M39.043385,189.032669 
	C38.974258,198.289749 38.905132,207.546829 38.814350,217.242996 
	C38.792690,217.682083 38.327957,217.811081 38.107357,217.911942 
	C33.007954,214.220337 28.129147,210.427856 22.747555,206.244553 
	C20.645489,208.838638 17.982702,212.114304 15.333446,215.400848 
	C14.606534,216.302628 14.096777,217.720200 13.178376,218.055984 
	C11.262259,218.756592 9.140047,218.893555 7.102508,219.262070 
	C7.107737,217.313751 6.321575,214.794449 7.247839,213.510666 
	C12.864157,205.726501 18.871153,198.224213 24.886532,190.321396 
	C25.652590,189.223129 26.279745,188.431244 27.025761,187.352631 
	C30.286083,183.191849 33.427547,179.317795 37.099312,175.194016 
	C38.069401,174.992203 38.509186,175.040131 38.924294,175.539429 
	C38.954250,179.646103 39.008884,183.301407 38.997818,187.300125 
	C38.969208,188.106598 39.006298,188.569626 39.043385,189.032669 
z"/>
<path fill="#FDF1E7" opacity="1.000000" stroke="none" 
	d="
M211.414490,75.005486 
	C210.607437,69.737595 210.787735,64.365898 209.773682,59.230015 
	C208.940338,55.009357 206.688599,51.068756 204.482727,45.544533 
	C199.222229,52.109108 194.959259,57.428864 190.429535,62.949295 
	C189.739365,60.280991 189.315964,57.412006 188.818054,54.068459 
	C191.483643,49.600010 194.223755,45.606125 197.423584,41.127495 
	C201.549347,40.431110 205.215408,40.219467 208.998596,40.335434 
	C211.842880,45.158409 214.570038,49.653770 217.425186,54.360123 
	C218.713074,48.950382 219.895920,43.981876 221.303696,39.013329 
	C221.528625,39.013287 221.978485,39.011909 221.978485,39.011909 
	C222.981918,40.426849 224.813431,41.818356 224.854263,43.260536 
	C225.117264,52.555141 224.889206,61.862473 225.043518,71.161957 
	C225.096573,74.359306 223.714828,75.183640 220.853195,75.034744 
	C217.871384,74.879593 214.875137,75.002403 211.414490,75.005486 
z"/>
<path fill="#FBEDE1" opacity="1.000000" stroke="none" 
	d="
M171.814026,78.044907 
	C169.181976,78.029747 166.549927,78.014595 163.477722,78.001389 
	C162.470810,66.276352 166.571381,59.748825 175.546799,58.336964 
	C177.302795,58.060738 179.159882,58.487591 180.946243,58.325153 
	C182.420731,58.191074 183.859604,57.665310 185.609344,57.115356 
	C185.908813,62.864437 185.913208,68.811272 185.491425,74.470566 
	C185.299911,70.139992 183.379562,66.927696 179.623520,66.437782 
	C177.137558,66.113533 173.148788,67.389175 172.009277,69.268356 
	C170.694717,71.436203 171.774155,75.055756 171.814026,78.044907 
z"/>
<path fill="#FF9757" opacity="1.000000" stroke="none" 
	d="
M172.136505,78.201294 
	C171.774155,75.055756 170.694717,71.436203 172.009277,69.268356 
	C173.148788,67.389175 177.137558,66.113533 179.623520,66.437782 
	C183.379562,66.927696 185.299911,70.139992 185.110916,74.579224 
	C185.038971,75.388786 184.921371,75.802147 184.754288,76.533768 
	C179.412430,81.667297 177.478439,81.905083 172.136505,78.201294 
z"/>
<path fill="#FCF2EA" opacity="1.000000" stroke="none" 
	d="
M192.196655,114.058136 
	C192.650803,125.719490 192.715652,137.370926 192.685242,149.477692 
	C190.180466,150.228821 188.926270,149.477600 188.954544,146.735001 
	C189.056503,136.843765 188.913437,126.949127 189.118942,117.061096 
	C189.140182,116.038620 190.870224,115.051651 192.196655,114.058136 
z"/>
<path fill="#FCF2EA" opacity="1.000000" stroke="none" 
	d="
M192.196732,77.058662 
	C192.651215,88.386169 192.716599,99.704338 192.685455,111.477570 
	C190.179825,112.231689 188.924042,111.482880 188.953873,108.739464 
	C189.057755,99.180840 188.910233,89.618553 189.118958,80.063354 
	C189.141312,79.039597 190.870331,78.053108 192.196732,77.058662 
z"/>
<path fill="#FCF2EA" opacity="1.000000" stroke="none" 
	d="
M192.200821,152.055664 
	C192.652832,163.384720 192.715027,174.703293 192.682098,186.477188 
	C190.177353,187.222672 188.924820,186.464645 188.954422,183.726868 
	C189.057755,174.169128 188.910583,164.607727 189.119324,155.053421 
	C189.141663,154.031555 190.872665,153.047028 192.200821,152.055664 
z"/>
<path fill="#FDF0E5" opacity="1.000000" stroke="none" 
	d="
M189.639206,65.344131 
	C190.865341,68.086739 191.824997,71.127914 192.693085,74.557343 
	C190.323273,75.190948 188.752777,74.639702 188.984619,71.880928 
	C189.159058,69.805305 189.246552,67.722382 189.639206,65.344131 
z"/>
<path fill="#F3DAC8" opacity="1.000000" stroke="none" 
	d="
M38.948975,175.088043 
	C38.509186,175.040131 38.069401,174.992203 37.298058,174.924454 
	C36.858814,171.495148 36.751129,168.085663 36.373741,164.383698 
	C36.815273,160.107330 37.612396,156.136108 38.202885,152.134399 
	C38.516106,150.011749 38.470615,147.836182 39.085491,145.630798 
	C39.428890,150.567581 42.829937,150.232452 46.402374,150.198349 
	C46.828552,151.229263 47.028744,152.040909 46.787590,152.891953 
	C41.921085,152.427917 39.635334,153.760147 39.818810,158.857086 
	C40.012939,164.249985 39.278069,169.676315 38.948975,175.088043 
z"/>
<path fill="#FF9757" opacity="1.000000" stroke="none" 
	d="
M221.078766,39.013367 
	C219.895920,43.981876 218.713074,48.950382 217.425186,54.360123 
	C214.570038,49.653770 211.842880,45.158409 209.190765,40.021523 
	C210.358597,36.227753 211.451401,33.075504 212.544189,29.923254 
	C212.085770,29.621338 211.627350,29.319420 211.168930,29.017502 
	C209.057144,30.201122 206.990891,31.478748 204.815979,32.532047 
	C203.571060,33.134953 201.976624,33.984165 200.839447,33.662449 
	C197.231842,32.641827 193.765182,31.122959 190.244034,29.796703 
	C190.180374,29.404507 190.116730,29.012310 190.025650,28.323629 
	C201.501007,22.512691 213.003784,16.998238 224.745361,11.233333 
	C225.166092,11.004292 225.348053,11.025700 225.804413,11.023109 
	C226.063568,12.058765 226.048355,13.118420 226.052628,14.574532 
	C225.630890,17.231319 225.189667,19.491650 224.533081,22.428070 
	C223.238068,28.407228 222.158417,33.710297 221.078766,39.013367 
z"/>
<path fill="#FCF3EB" opacity="1.000000" stroke="none" 
	d="
M211.436325,149.998779 
	C210.919998,138.309799 210.872345,126.618332 210.896072,114.462540 
	C215.391220,114.197815 221.728668,112.726524 223.741241,115.031471 
	C226.112350,117.747047 224.857742,123.730965 224.956329,128.302475 
	C225.081238,134.095108 224.852783,139.896759 225.038391,145.686142 
	C225.139511,148.840057 224.195160,150.285980 220.842972,150.038406 
	C217.878784,149.819489 214.885452,149.994980 211.436325,149.998779 
z"/>
<path fill="#FCF3EB" opacity="1.000000" stroke="none" 
	d="
M211.432663,112.001663 
	C210.918594,100.645485 210.873505,89.287056 210.899536,77.464478 
	C213.958603,77.002769 216.960114,77.186035 219.931213,76.963402 
	C223.942474,76.662834 225.130478,78.465088 225.044403,82.256142 
	C224.856049,90.551765 224.836029,98.858612 225.056412,107.152664 
	C225.151627,110.735771 224.242081,112.434013 220.362213,112.050621 
	C217.567642,111.774467 214.723618,111.998489 211.432663,112.001663 
z"/>
<path fill="#FCF3EB" opacity="1.000000" stroke="none" 
	d="
M211.439224,186.994553 
	C210.922653,175.639114 210.872208,164.281082 210.889603,152.457672 
	C215.390396,152.199097 221.430923,150.761795 223.800552,153.078781 
	C226.132965,155.359406 224.858704,161.444183 224.957245,165.864441 
	C225.079330,171.340454 224.872253,176.824463 225.026611,182.298843 
	C225.122375,185.695404 223.839584,187.214951 220.370667,187.020035 
	C217.557236,186.861938 214.727722,186.990540 211.439224,186.994553 
z"/>
<path fill="#F9E9DD" opacity="1.000000" stroke="none" 
	d="
M221.303696,39.013329 
	C222.158417,33.710297 223.238068,28.407228 224.598206,22.810249 
	C224.918533,25.605017 225.328064,28.749054 224.876617,31.764179 
	C224.539108,34.018303 223.090973,36.106133 222.057922,38.639961 
	C221.978485,39.011909 221.528625,39.013287 221.303696,39.013329 
z"/>
<path fill="#FDF4EC" opacity="1.000000" stroke="none" 
	d="
M149.961884,35.325993 
	C138.289856,35.830235 126.629005,35.883999 114.509758,35.854767 
	C114.033569,26.467480 114.147232,17.160130 113.930977,7.860454 
	C113.848587,4.317258 114.676865,2.782084 118.594460,2.893254 
	C127.725464,3.152368 136.870148,3.065513 146.006378,2.927179 
	C149.031097,2.881381 150.097748,3.926966 150.049622,6.963088 
	C149.902191,16.265297 149.981766,25.571104 149.961884,35.325993 
z"/>
<path fill="#F9E9DD" opacity="1.000000" stroke="none" 
	d="
M189.932022,30.070160 
	C193.765182,31.122959 197.231842,32.641827 200.839447,33.662449 
	C201.976624,33.984165 203.571060,33.134953 204.815979,32.532047 
	C206.990891,31.478748 209.057144,30.201122 211.168930,29.017502 
	C211.627350,29.319420 212.085770,29.621338 212.544189,29.923254 
	C211.451401,33.075504 210.358597,36.227753 209.073639,39.693916 
	C205.215408,40.219467 201.549347,40.431110 197.616898,40.779655 
	C194.783112,39.676952 192.215729,38.437351 189.332733,37.017441 
	C189.218079,34.672626 189.419037,32.508121 189.932022,30.070160 
z"/>
<path fill="#FDF1E7" opacity="1.000000" stroke="none" 
	d="
M77.861504,110.843498 
	C78.570305,105.554352 79.600868,100.283401 79.901184,94.971161 
	C80.228935,89.173622 82.475296,84.693596 87.420166,81.803627 
	C97.454491,75.939178 109.339722,82.755775 110.038986,94.513046 
	C110.207191,97.341034 111.187561,100.120712 111.943054,103.682846 
	C111.385368,106.905167 110.679039,109.367264 109.972717,111.829361 
	C109.972725,111.829361 109.989365,111.926605 109.481125,111.951218 
	C100.312401,111.984383 91.651176,112.054771 82.992096,111.948845 
	C81.277649,111.927872 79.571487,111.229492 77.861504,110.843498 
M102.059380,92.917000 
	C100.618370,88.485504 97.622185,86.294525 93.032219,87.546715 
	C88.977226,88.652954 87.276260,91.717560 87.872307,95.920280 
	C88.428040,99.838715 91.548470,102.348358 95.581680,101.911713 
	C100.409279,101.389076 102.379890,98.393730 102.059380,92.917000 
z"/>
<path fill="#FDF0E5" opacity="1.000000" stroke="none" 
	d="
M46.176392,149.979065 
	C42.829937,150.232452 39.428890,150.567581 39.324627,145.301956 
	C41.149918,136.577240 46.685905,132.201141 55.347733,133.032104 
	C58.897953,133.372681 60.931770,132.256180 62.875458,129.648727 
	C66.257729,125.111443 69.826164,120.712921 73.900452,116.361732 
	C74.727242,119.468193 74.970139,122.469147 75.213043,125.470108 
	C73.049339,128.524841 71.074684,131.739548 68.665352,134.586395 
	C66.529533,137.110062 65.732285,139.253677 67.508682,142.450607 
	C68.542267,144.310715 68.329468,146.863419 68.178810,149.529007 
	C65.446320,149.964951 63.212509,149.976349 60.969490,149.585907 
	C60.653252,143.299271 57.869389,139.994598 53.415035,140.227280 
	C48.547001,140.481567 46.134899,143.731125 46.176392,149.979065 
z"/>
<path fill="#F0E1D5" opacity="1.000000" stroke="none" 
	d="
M150.384369,113.899017 
	C143.307495,114.018967 136.500824,113.983727 129.201874,113.899582 
	C131.960190,112.979050 135.358231,111.072083 138.422485,111.508507 
	C141.931717,112.008316 143.573242,110.987961 145.345459,108.478920 
	C147.160629,105.909088 149.305588,103.572212 151.586853,100.940445 
	C152.251755,103.740837 152.636017,106.734154 153.381653,109.830261 
	C152.713531,111.203308 151.684052,112.473564 150.384369,113.899017 
z"/>
<path fill="#F0E1D5" opacity="1.000000" stroke="none" 
	d="
M75.491547,125.301094 
	C74.970139,122.469147 74.727242,119.468193 74.176147,116.173882 
	C75.018326,114.319321 76.168701,112.758102 77.590286,111.020187 
	C79.571487,111.229492 81.277649,111.927872 82.992096,111.948845 
	C91.651176,112.054771 100.312401,111.984383 109.432526,111.959747 
	C109.900337,112.414024 109.908485,112.884392 109.394623,113.689789 
	C100.258484,114.017563 91.644348,114.002647 83.030220,114.005531 
	C76.398743,114.007744 75.522758,115.436256 78.060028,122.051819 
	C77.296700,123.078575 76.533379,124.105324 75.491547,125.301094 
z"/>
<path fill="#F0E1D5" opacity="1.000000" stroke="none" 
	d="
M110.325516,111.863831 
	C110.679039,109.367264 111.385368,106.905167 112.151817,103.986420 
	C116.510353,106.747864 120.808769,109.965973 125.279030,113.482468 
	C122.481102,114.008003 119.511314,114.235153 116.246429,114.755783 
	C114.193649,113.998932 112.435982,112.948616 110.325516,111.863831 
z"/>
<path fill="#FDF3EB" opacity="1.000000" stroke="none" 
	d="
M78.375916,121.914650 
	C75.522758,115.436256 76.398743,114.007744 83.030220,114.005531 
	C91.644348,114.002647 100.258484,114.017563 109.323059,114.035782 
	C109.797157,138.193649 109.820808,162.340561 109.180786,186.797302 
	C99.065216,187.057602 89.613335,187.008057 80.161438,186.958527 
	C80.130936,175.281357 80.100433,163.604187 80.290375,151.361237 
	C80.407410,150.529007 80.303993,150.262558 80.200584,149.996124 
	C80.133308,141.875061 80.121819,133.752762 79.941711,125.634209 
	C79.913002,124.340034 79.127457,123.062637 78.375916,121.914650 
z"/>
<path fill="#F0E1D5" opacity="1.000000" stroke="none" 
	d="
M80.104980,187.296997 
	C89.613335,187.008057 99.065216,187.057602 109.031136,187.198593 
	C109.404305,187.608200 109.263443,187.926376 109.037659,188.374619 
	C99.565178,188.585953 90.177628,188.667206 80.465988,188.874084 
	C80.110771,188.544968 80.079643,188.090210 80.104980,187.296997 
z"/>
<path fill="#ECDDD2" opacity="1.000000" stroke="none" 
	d="
M121.792984,150.303345 
	C122.016937,150.044937 122.220612,150.030167 122.730881,150.004562 
	C122.820511,150.268097 122.603546,150.542435 122.139771,150.918823 
	C121.892960,151.020859 121.772713,150.546951 121.792984,150.303345 
z"/>
<path fill="#F3DAC8" opacity="1.000000" stroke="none" 
	d="
M39.508247,189.020325 
	C39.006298,188.569626 38.969208,188.106598 39.460655,187.310684 
	C49.472965,186.945816 58.956749,186.913818 68.440529,186.881821 
	C68.525291,187.387680 68.610054,187.893524 68.576920,188.771667 
	C58.963718,189.098618 49.468410,189.053299 39.508247,189.020325 
z"/>
<path fill="#FDF4EC" opacity="1.000000" stroke="none" 
	d="
M68.555534,186.434296 
	C58.956749,186.913818 49.472965,186.945816 39.526352,186.967255 
	C39.008884,183.301407 38.954250,179.646103 38.924294,175.539429 
	C39.278069,169.676315 40.012939,164.249985 39.818810,158.857086 
	C39.635334,153.760147 41.921085,152.427917 47.101837,153.085388 
	C52.384663,156.069366 55.709503,155.723953 60.395237,151.986893 
	C63.372356,152.042358 65.909904,152.093445 68.447449,152.144531 
	C68.521812,163.425278 68.596176,174.706039 68.555534,186.434296 
z"/>
<path fill="#F3DAC8" opacity="1.000000" stroke="none" 
	d="
M68.576057,151.775208 
	C65.909904,152.093445 63.372356,152.042358 60.428226,151.695816 
	C60.340664,150.929489 60.659683,150.458633 60.978699,149.987762 
	C63.212509,149.976349 65.446320,149.964951 68.078026,149.916077 
	C68.552170,150.387695 68.628418,150.896790 68.576057,151.775208 
z"/>
<path fill="#F0E1D5" opacity="1.000000" stroke="none" 
	d="
M80.159233,150.251434 
	C80.303993,150.262558 80.407410,150.529007 80.381226,150.900940 
	C80.207047,150.839874 80.162460,150.673309 80.159233,150.251434 
z"/>
<path fill="#FF9757" opacity="1.000000" stroke="none" 
	d="
M140.406006,132.583176 
	C136.514252,134.579453 132.831039,134.463348 130.864044,130.955719 
	C129.615173,128.728683 129.080673,124.846474 130.230881,122.878273 
	C131.402328,120.873718 135.070526,119.318024 137.570160,119.419586 
	C139.568954,119.500801 142.073715,122.010185 143.246994,124.071800 
	C145.047455,127.235451 143.363037,130.134445 140.406006,132.583176 
z"/>
<path fill="#FF9757" opacity="1.000000" stroke="none" 
	d="
M60.969494,149.585907 
	C60.659683,150.458633 60.340664,150.929489 59.988655,151.691437 
	C55.709503,155.723953 52.384663,156.069366 47.543182,153.045975 
	C47.028744,152.040909 46.828552,151.229263 46.402374,150.198349 
	C46.134899,143.731125 48.547001,140.481567 53.415035,140.227280 
	C57.869389,139.994598 60.653252,143.299271 60.969494,149.585907 
z"/>
<path fill="#FE9656" opacity="1.000000" stroke="none" 
	d="
M102.105606,93.319992 
	C102.379890,98.393730 100.409279,101.389076 95.581680,101.911713 
	C91.548470,102.348358 88.428040,99.838715 87.872307,95.920280 
	C87.276260,91.717560 88.977226,88.652954 93.032219,87.546715 
	C97.622185,86.294525 100.618370,88.485504 102.105606,93.319992 
z"/>
</svg>